<?xml version="1.0" encoding="iso-8859-1"?>
<!-- Generator: Adobe Illustrator 16.0.0, SVG Export Plug-In . SVG Version: 6.00 Build 0)  -->
<!DOCTYPE svg PUBLIC "-//W3C//DTD SVG 1.1//EN" "http://www.w3.org/Graphics/SVG/1.1/DTD/svg11.dtd">
<svg xmlns="http://www.w3.org/2000/svg" xmlns:xlink="http://www.w3.org/1999/xlink" version="1.1" id="Capa_1" x="0px" y="0px" width="512px" height="512px" viewBox="0 0 91.673 91.673" style="enable-background:new 0 0 91.673 91.673;" xml:space="preserve">
<g>
	<g>
		<path d="M53.515,91.669c8.398-0.372,15.896-3.722,21.682-9.685c15.336-15.811,15.041-45.611,14.957-48.907L90.151,2    c0-1.104-0.896-2-2-2h-30.69c-1.104,0-2,0.896-2,2v30.691c0,1.104,0.896,2,2,2h15.685C73.144,37.254,72.833,60,62.96,70.146    c-2.672,2.746-5.836,4.215-9.674,4.484c-1.049,0.074-1.859,0.945-1.859,1.995V89.67c0,0.546,0.223,1.066,0.617,1.445    C52.438,91.493,52.962,91.703,53.515,91.669z" fill="#FFFFFF"/>
		<path d="M2.12,91.116c0.395,0.377,0.907,0.587,1.472,0.553c8.398-0.372,15.896-3.722,21.681-9.685    C40.609,66.174,40.314,36.373,40.23,33.077L40.228,2c0-1.104-0.896-2-2-2H7.537c-1.104,0-2,0.896-2,2v30.691c0,1.104,0.896,2,2,2    h15.684C23.217,37.254,22.907,60,13.036,70.146c-2.672,2.746-5.836,4.215-9.674,4.484c-1.048,0.074-1.859,0.945-1.859,1.995V89.67    C1.503,90.216,1.725,90.738,2.12,91.116z" fill="#FFFFFF"/>
	</g>
</g>
<g>
</g>
<g>
</g>
<g>
</g>
<g>
</g>
<g>
</g>
<g>
</g>
<g>
</g>
<g>
</g>
<g>
</g>
<g>
</g>
<g>
</g>
<g>
</g>
<g>
</g>
<g>
</g>
<g>
</g>
</svg>
