<?xml version="1.0" encoding="iso-8859-1"?>
<!-- Generator: Adobe Illustrator 19.0.0, SVG Export Plug-In . SVG Version: 6.00 Build 0)  -->
<svg xmlns="http://www.w3.org/2000/svg" xmlns:xlink="http://www.w3.org/1999/xlink" version="1.1" id="Layer_1" x="0px" y="0px" viewBox="0 0 491.52 491.52" style="enable-background:new 0 0 491.52 491.52;" xml:space="preserve" width="512px" height="512px">
<g>
	<g>
		<path d="M378.88,184.026v307.2h112.64v-307.2H378.88z M471.04,470.747h-71.68v-266.24h71.68V470.747z" fill="#727475"/>
	</g>
</g>
<g>
	<g>
		<path d="M256,235.227v256h102.4v-256H256z M337.92,470.747h-61.44v-215.04h61.44V470.747z" fill="#727475"/>
	</g>
</g>
<g>
	<g>
		<path d="M133.12,286.427v204.8h102.4v-204.8H133.12z M215.04,470.747L215.04,470.747H153.6v-163.84h61.44V470.747z" fill="#727475"/>
	</g>
</g>
<g>
	<g>
		<path d="M0,347.867v143.36h112.64v-143.36H0z M92.16,470.747H20.48v-102.4h71.68V470.747z" fill="#727475"/>
	</g>
</g>
<g>
	<g>
		<polygon points="336.975,0.293 330.095,19.581 404.601,46.146 56.565,229.831 66.125,247.942 411.508,65.658 385.95,137.341     405.24,144.223 443.07,38.122   " fill="#727475"/>
	</g>
</g>
<g>
</g>
<g>
</g>
<g>
</g>
<g>
</g>
<g>
</g>
<g>
</g>
<g>
</g>
<g>
</g>
<g>
</g>
<g>
</g>
<g>
</g>
<g>
</g>
<g>
</g>
<g>
</g>
<g>
</g>
</svg>
