<svg xmlns="http://www.w3.org/2000/svg" xmlns:xlink="http://www.w3.org/1999/xlink" viewBox="0 0 138 39.89"><defs><style>.a,.c{fill:#fff;}.a{fill-rule:evenodd;}.b{mask:url(#a);}</style><mask id="a" x="-0.59" y="-1.35" width="42.69" height="42.65" maskUnits="userSpaceOnUse"><path class="a" d="M-.59-1.35H42.1V41.3H-.59Z"/></mask></defs><title>Asset 1</title><g class="b"><path class="c" d="M24.38,30.21,28.31,37l1.89-1.18.67-2.24-4.21-7.29ZM11.68,3.36,9.83,5l5,8.59,2.27-3.92L12.53,1.78Zm4.27,21-5.52,9.55.69,2.55,1.69,1.19,8-13.78,2.27-3.93L31.87,4.65l-1.47-2-.49-.71-2.15,2Z"/><path class="c" d="M11.51,0,9.23,3.94h0L2.27,16h0L0,20,11.51,39.89,13.78,36,4.54,20l9.24-16h6.61L22.66,0ZM27.74,4,37,20,27.74,36H21.12l-2.26,3.93H30L32.28,36l7-12.08L41.52,20l-2.27-4-7-12.06L30,0Z"/></g><path class="a" d="M61,12.8l-4.21,6.13L52.59,12.8H49.23L55.1,21l-6.17,8.63h3.35l4.54-6.5,4.49,6.5h3.35L58.49,21l5.87-8.23ZM73.78,15a3.52,3.52,0,0,1,2.84,1.18,5.12,5.12,0,0,1,1,3.25H69.47a5.64,5.64,0,0,1,1.31-3.21,3.88,3.88,0,0,1,3-1.22m0-2.51a6.76,6.76,0,0,0-5.43,2.41,9.81,9.81,0,0,0-2,6.45,8.8,8.8,0,0,0,2.16,6.31A7.79,7.79,0,0,0,74.45,30a14.19,14.19,0,0,0,2.89-.25,13.87,13.87,0,0,0,2.54-.83l.13-.06V26.14l-.3.13a13.15,13.15,0,0,1-5.17,1.09,4.88,4.88,0,0,1-3.75-1.43,6.21,6.21,0,0,1-1.4-4H80.71V20.11a8,8,0,0,0-1.85-5.51,6.46,6.46,0,0,0-5-2.1m18.71,0a7.19,7.19,0,0,0-3.17.69,5.43,5.43,0,0,0-2,1.66l-.37-2H84.53V29.66h2.92V20.82a6.9,6.9,0,0,1,1.15-4.46A4.54,4.54,0,0,1,92.22,15a3.53,3.53,0,0,1,2.71.92,4.13,4.13,0,0,1,.86,2.86V29.66h2.92V18.73A6.32,6.32,0,0,0,97.14,14a6.46,6.46,0,0,0-4.62-1.49m17.31,15a3.68,3.68,0,0,1-3.22-1.52,7.92,7.92,0,0,1-1.12-4.63,8.26,8.26,0,0,1,1.13-4.68A3.59,3.59,0,0,1,109.8,15a4.22,4.22,0,0,1,3.54,1.41c.74.95,1.12,2.59,1.12,4.85v.53a6.83,6.83,0,0,1-1.1,4.34A4.35,4.35,0,0,1,109.83,27.45Zm4.63-14.64.06,1.17.07.74a6.92,6.92,0,0,0-10.26.11,10.14,10.14,0,0,0-1.85,6.44,9.91,9.91,0,0,0,1.85,6.41A6.33,6.33,0,0,0,109.51,30a6.11,6.11,0,0,0,5.14-2.32l.31,2h2.42V5.9h-2.92v6.91Zm9.25-6.11a1.69,1.69,0,0,0-1.2.45A1.88,1.88,0,0,0,122,8.56a1.87,1.87,0,0,0,.48,1.4,1.63,1.63,0,0,0,1.2.48,1.68,1.68,0,0,0,1.18-.47,1.88,1.88,0,0,0,.5-1.41,1.84,1.84,0,0,0-.5-1.4,1.67,1.67,0,0,0-1.18-.46m-1.47,23h2.91V12.8h-2.91Zm15.49-2.47a7.14,7.14,0,0,1-.95.19,7.24,7.24,0,0,1-1.24.1,2.25,2.25,0,0,1-1.78-.72,3.16,3.16,0,0,1-.65-2.14V15.16h4.77V12.8h-4.77V9h-1.82l-1.06,3.57-2.4,1v1.55h2.36v9.56c0,3.48,1.68,5.24,5,5.24a8.93,8.93,0,0,0,1.45-.13,4.73,4.73,0,0,0,1.25-.34l.12-.06V27.11l-.27.08Z"/></svg>