<?xml version="1.0" encoding="iso-8859-1"?>
<!-- Generator: Adobe Illustrator 16.0.0, SVG Export Plug-In . SVG Version: 6.00 Build 0)  -->
<!DOCTYPE svg PUBLIC "-//W3C//DTD SVG 1.1//EN" "http://www.w3.org/Graphics/SVG/1.1/DTD/svg11.dtd">
<svg xmlns="http://www.w3.org/2000/svg" xmlns:xlink="http://www.w3.org/1999/xlink" version="1.1" id="Capa_1" x="0px" y="0px" width="512px" height="512px" viewBox="0 0 644.256 644.256" style="enable-background:new 0 0 644.256 644.256;" xml:space="preserve">
<g>
	<g id="paypal">
		<g>
			<path d="M569.759,137.57C560.51,49.851,489.069,0,370.426,0H137.019L16.128,544.038h79.544L73.395,644.256h215.454     l31.812-143.168h107.032c111.027,0,200.436-133.146,200.436-243.386C628.128,206.119,607.884,164.701,569.759,137.57z      M51.82,515.404L159.998,28.634h210.428c64.153,0,171.802,16.736,171.802,128.851c0,96.667-79.272,214.751-171.802,214.751     H240.429l-31.812,143.168H51.82z M427.692,472.454H297.696l-31.812,143.168H109.087l15.906-71.584h106.589l31.812-143.168     h107.033c105.028,0,190.585-119.116,199.547-225.303c19.515,20.831,29.521,48.291,29.521,82.135     C599.494,354.369,520.223,472.454,427.692,472.454z M306,259.005c63.48,0,93.06-60.116,93.06-101.062     c0-43.867-62.837-43.408-96.582-43.408h-14.746l-35.449,141.994l16.55,1.103C279.285,258.633,297.167,259.005,306,259.005z      M310.109,142.28c21.017,0.215,60.302,1.847,60.302,15.205c0,25.412-18.898,72.887-64.425,72.887     c-4.582,0-11.167-0.1-17.724-0.315L310.109,142.28z" fill="#A3A3A3"/>
		</g>
	</g>
</g>
<g>
</g>
<g>
</g>
<g>
</g>
<g>
</g>
<g>
</g>
<g>
</g>
<g>
</g>
<g>
</g>
<g>
</g>
<g>
</g>
<g>
</g>
<g>
</g>
<g>
</g>
<g>
</g>
<g>
</g>
</svg>
